<svg xmlns="http://www.w3.org/2000/svg" viewBox="0 0 90.26 105.39"><defs><style>.cls-1{fill:#fff;fill-rule:evenodd;}</style></defs><g id="图层_2" data-name="图层 2"><g id="图层_1-2" data-name="图层 1"><path class="cls-1" d="M90.25.06H80.37c0,3.89,0,7.79,0,11.69a2,2,0,0,1-2,1.95H60.59V0H50.7V33.19C50.7,39,54.65,41,58.61,41H78.39a2,2,0,0,1,2,1.94v19.5a2,2,0,0,1-2,1.94H58.61c-4,0-7.91,2-7.91,7.8v33.2h9.89V91.69h17.8a2,2,0,0,1,2,2c0,3.9,0,7.8,0,11.71h9.88V89.75c0-3.9-4-7.8-7.84-7.8H62.57a1.92,1.92,0,0,1-2-2c0-1.29,0-2.6,0-3.89,0,0,.1-2,2-2q9.87,0,19.78,0c4,0,7.91-3.87,7.91-7.77V39c0-3.9-4-7.8-7.91-7.78l-19.78,0c-1.88,0-2-2-2-2,0-1.31,0-2.6,0-3.89a1.92,1.92,0,0,1,2-1.95H82.41c3.89,0,7.85-3.89,7.84-7.79V.06ZM0,105.34H9.9c0-3.91,0-7.81,0-11.7a2,2,0,0,1,2-2H29.66v13.67h9.89V72.18c0-5.84-3.95-7.8-7.91-7.79H11.87a2,2,0,0,1-2-2V43a2,2,0,0,1,2-1.94H31.64c4,0,7.91-2,7.91-7.82V0H29.66V13.69H11.87a2,2,0,0,1-2-1.95c0-3.91,0-7.81,0-11.71H0V15.64c0,3.9,4,7.8,7.83,7.8H27.69a1.92,1.92,0,0,1,1.95,1.94c0,1.3,0,2.59,0,3.9,0,0-.07,2-2,2l-19.77,0C4,31.24,0,35.14,0,39v27.3c0,3.9,4,7.8,7.92,7.77q9.89,0,19.77,0c1.89,0,2,2,2,2,0,1.29,0,2.59,0,3.89a1.92,1.92,0,0,1-1.95,2H7.84C4,82,0,85.84,0,89.73Z"/></g></g></svg>